<svg viewBox="0 0 268.0201416015625 158.116943359375" version="1.1" xmlns="http://www.w3.org/2000/svg">
  <g transform="matrix(1 0 0 1 79.49508056640616 114.2884521484375)">
    <path d="M46.3867 8.59375C49.2676 8.59375 51.5137 7.4707 53.0762 5.12695L98.7793-65.5762C99.9512-67.334 100.391-68.8965 100.391-70.4102C100.391-74.2676 97.5586-77.0508 93.6035-77.0508C90.8691-77.0508 89.209-76.0742 87.5488-73.4375L46.1914-7.91016L25-34.7656C23.3887-36.7676 21.7285-37.6465 19.3359-37.6465C15.332-37.6465 12.4512-34.8145 12.4512-30.9082C12.4512-29.1992 13.0371-27.5879 14.4531-25.8789L39.7461 5.27344C41.6016 7.56836 43.6523 8.59375 46.3867 8.59375Z" />
  </g>
</svg>